<svg width="120" height="120" viewBox="0 0 120 120" fill="none" xmlns="http://www.w3.org/2000/svg">

  <style>
    path { fill: #FF0036; }
    @media (prefers-color-scheme: dark) {
      path { fill: #FFFFFF; }
    }
  </style>
<path d="M60.0842 116.193C59.6713 116.193 59.2583 116.063 58.9142 115.787L27.1633 91.0413C26.8498 90.7966 26.6203 90.4601 26.5056 90.0777L16.0826 54.9467C16.0138 54.7173 15.9908 54.4802 16.0137 54.2432L18.2926 27.2181C18.3461 26.5911 18.7055 26.0329 19.2485 25.7193L58.8148 3.25202C59.4419 2.8926 60.2219 2.92317 60.826 3.32847L96.4847 27.4246C96.7294 27.5929 96.9359 27.807 97.0812 28.067L104.246 40.7689C104.491 41.2048 104.56 41.7171 104.43 42.1913L92.707 86.4453C92.6152 86.7971 92.4241 87.1106 92.1564 87.363L61.3767 115.688C61.0096 116.024 60.5507 116.193 60.0842 116.193ZM29.9851 88.4106L59.9848 111.788L89.1664 84.9312L100.545 41.9695L93.9841 30.3382L59.6789 7.1597L22.0167 28.5488L19.8526 54.2126L29.9927 88.4183L29.9851 88.4106Z" fill="#FF0036"/>
<path d="M56.8266 94.6967H44.4535C44.3235 94.6967 44.2012 94.6814 44.0788 94.6584L27.9509 91.4008C26.9186 91.1943 26.2533 90.1849 26.4598 89.1525C26.6662 88.1201 27.6756 87.4472 28.708 87.6613L44.6447 90.8807H56.7501L80.6704 88.9537L88.2335 86.1166C89.22 85.7419 90.3211 86.2466 90.6882 87.2331C91.0552 88.2196 90.5582 89.3207 89.5717 89.6878L81.7563 92.6166C81.588 92.6778 81.4198 92.7161 81.2363 92.7314L56.9719 94.6814H56.8189L56.8266 94.6967ZM68.2208 51.429C67.8461 51.429 67.4637 51.3219 67.1349 51.0925L49.6382 39.0024L25.8709 36.7694C25.4503 36.7312 25.0527 36.5476 24.7391 36.257L18.8814 30.7205C18.1167 29.994 18.0785 28.7934 18.8049 28.0211C19.5314 27.2564 20.732 27.2181 21.5044 27.9446L26.8879 33.03L50.5023 35.2476C50.8235 35.2782 51.1371 35.3929 51.4047 35.5765L67.9608 47.0166L82.6357 31.2864C82.8574 31.0493 83.1404 30.8658 83.4616 30.7664L94.8558 27.1875C95.8652 26.874 96.9282 27.4322 97.2493 28.434C97.5629 29.4358 97.0046 30.5064 96.0029 30.8276L85.0828 34.2611L69.6278 50.8249C69.2531 51.2225 68.7485 51.429 68.2361 51.429H68.2208Z" fill="#FF0036"/>
<path d="M59.7554 113.914C59.1054 113.914 58.486 113.577 58.1342 113.012L46.4952 94.1537L17.6425 52.5609C17.2755 52.0256 17.199 51.345 17.4437 50.7485L24.2803 34.1389C24.395 33.8636 24.5708 33.6113 24.8002 33.4201L58.1801 4.76616C58.983 4.07792 60.1836 4.1697 60.8719 4.97265C61.5601 5.7756 61.4683 6.97622 60.6654 7.66446L27.6297 36.0201L21.359 51.2456L49.6535 92.0202C49.6535 92.0202 49.6918 92.0737 49.7071 92.1043L58.1266 105.747L58.7383 92.456C58.7383 92.3719 58.7536 92.2955 58.7613 92.2114L66.332 49.1885C66.4849 48.3397 67.1884 47.6897 68.0526 47.6208C68.9167 47.552 69.7196 48.0643 70.0102 48.8826L85.488 92.1578C85.8398 93.152 85.3275 94.2379 84.3334 94.5973C83.3392 94.949 82.2533 94.4367 81.8939 93.4425L68.8479 56.9503L62.5466 92.7619L61.6596 112.102C61.6213 112.935 61.0401 113.654 60.2295 113.86C60.069 113.899 59.9084 113.922 59.7478 113.922L59.7554 113.914Z" fill="#FF0036"/>
<path d="M19.2103 53.3791C18.4915 53.3791 17.8032 52.9661 17.4744 52.2702C17.0308 51.3143 17.4514 50.1826 18.4073 49.739L50.4412 34.9342L60.6578 23.2111L57.8666 5.20205C57.706 4.16204 58.4173 3.18322 59.4573 3.02263C60.4973 2.86204 61.4761 3.57319 61.6367 4.6132L64.5655 23.5017C64.6496 24.0599 64.4891 24.6258 64.122 25.0464L53.0489 37.7483C52.8731 37.9471 52.6589 38.1154 52.4142 38.2301L20.0055 53.2109C19.7455 53.3332 19.4779 53.3867 19.2103 53.3867V53.3791Z" fill="#FF0036"/>
<path d="M84.0198 34.4982C83.7751 34.4982 83.5304 34.4523 83.2933 34.3529L61.9578 25.5587C60.9866 25.1611 60.5201 24.0446 60.9177 23.0657C61.323 22.0945 62.4319 21.6281 63.4107 22.0257L84.7463 30.82C85.7175 31.2176 86.1839 32.3341 85.7863 33.3129C85.4804 34.0471 84.7692 34.4906 84.0198 34.4906V34.4982Z" fill="#FF0036"/>
<path opacity="0.4" d="M80.8157 36.5401L62.4549 29.4971L52.9801 40.3636L66.9437 50.0143L80.8157 36.5401ZM29.3733 36.7006L49.4242 38.4441L49.7529 38.253L60.0308 26.4687L57.966 13.132L29.3733 36.7006ZM27.9815 72.4893L31.9733 86.4071L43.5358 94.0237L44.0865 94.1231L27.9815 72.4893ZM93.0588 34.8041L84.6852 37.4348L69.605 53.0808L82.4445 86.9271L86.8263 83.0576L96.3165 41.7477L93.0588 34.8041ZM26.6203 40.1954L22.5979 49.9684L22.5521 50.259L43.9488 41.5948L26.6203 40.1954ZM61.4837 105.425L71.4097 96.6618L61.8584 97.3501L61.4837 105.425ZM25.068 35.1711L25.3356 35.4235L48.3765 17.7433L26.0468 29.2828L25.068 35.1711ZM56.3984 97.9466C56.3295 97.9466 56.2607 97.9542 56.1919 97.9542H50.686L51.4889 99.2543L57.7596 103.384L58.0196 97.7631L56.3984 97.939V97.9466ZM63.8008 25.8646L83.6222 33.7717L90.3746 31.6459L72.4574 19.678L61.7743 12.8185L63.8008 25.8646ZM58.4172 93.886L65.4985 53.6467L49.6612 42.7112L22.8732 54.6791L24.4332 60.1238L48.43 94.1383H56.0848L58.4172 93.886ZM62.3707 93.4577L76.1279 92.4942L79.2634 89.7335L67.7544 62.8232L62.3707 93.4577Z" fill="#FF0036"/>
</svg>

